<svg width="35" height="26" viewBox="0 0 35 26" fill="none" xmlns="http://www.w3.org/2000/svg">
<path d="M25.6492 0C31.6556 0 35 2.314 35 6.279V19.708C35 23.738 31.6556 26 25.6492 26H9.35278C3.44167 26 0 23.738 0 19.708V6.279C0 2.314 3.44167 0 9.35278 0H25.6492ZM9.87778 17.862C9.29444 17.823 8.73056 18.005 8.41944 18.343C8.10833 18.668 8.10833 19.097 8.41944 19.435C8.73056 19.76 9.29444 19.955 9.87778 19.903H25.1222C25.8981 19.851 26.4833 19.4077 26.4833 18.889C26.4833 18.356 25.8981 17.914 25.1222 17.862H9.87778ZM25.1222 11.9327H9.87778C9.03972 11.9327 8.36111 12.389 8.36111 12.948C8.36111 13.507 9.03972 13.962 9.87778 13.962H25.1222C25.9583 13.962 26.6389 13.507 26.6389 12.948C26.6389 12.389 25.9583 11.9327 25.1222 11.9327ZM15.6897 6.045H9.87778V6.058C9.03972 6.058 8.36111 6.513 8.36111 7.072C8.36111 7.631 9.03972 8.086 9.87778 8.086H15.6897C16.5278 8.086 17.2083 7.631 17.2083 7.0577C17.2083 6.5 16.5278 6.045 15.6897 6.045Z" fill="currentColor"/>
</svg>
