<svg width="35" height="27" viewBox="0 0 35 27" fill="none" xmlns="http://www.w3.org/2000/svg">
<path d="M12.222 24.5013V20.5107C12.222 19.4919 13.3961 18.6661 14.8445 18.6661H20.139C20.8346 18.6661 21.5016 18.8605 21.9934 19.2064C22.4852 19.5523 22.7615 20.0215 22.7615 20.5107V24.5013C22.7572 24.9248 22.9933 25.3321 23.4175 25.6326C23.8418 25.9332 24.419 26.1023 25.0212 26.1023H28.6334C30.3204 26.1053 31.9398 25.6361 33.1343 24.7982C34.3287 23.9603 35 22.8225 35 21.6359V10.2671C35 9.30867 34.3959 8.3995 33.3506 7.78457L21.0627 0.882085C18.9252 -0.328155 15.8626 -0.28908 13.7889 0.974892L1.78134 7.78457C0.686627 8.38137 0.0323332 9.29323 0 10.2671V21.6243C0 24.0974 2.85044 26.1023 6.36664 26.1023H9.89632C11.147 26.1023 12.1634 25.3926 12.1725 24.5129L12.222 24.5013Z" fill="currentColor"/>
</svg>
